<?xml version="1.0" encoding="UTF-8"?>
<svg id="Layer_1" data-name="Layer 1" xmlns="http://www.w3.org/2000/svg" xmlns:xlink="http://www.w3.org/1999/xlink" viewBox="0 0 472.94 472.94">
  <defs>
    <style>
      .cls-1 {
        fill: url(#linear-gradient-3);
      }

      .cls-2 {
        fill: url(#linear-gradient-2);
      }

      .cls-3 {
        fill: none;
        stroke: url(#linear-gradient);
        stroke-miterlimit: 10;
        stroke-width: 17px;
      }
    </style>
    <linearGradient id="linear-gradient" x1="0" y1="236.47" x2="472.94" y2="236.47" gradientUnits="userSpaceOnUse">
      <stop offset="0" stop-color="#82cfcb"/>
      <stop offset="1" stop-color="#6396cf"/>
    </linearGradient>
    <linearGradient id="linear-gradient-2" x1="154.19" y1="237.65" x2="325.69" y2="237.65" gradientUnits="userSpaceOnUse">
      <stop offset="0" stop-color="#82cfcb"/>
      <stop offset=".39" stop-color="#75b7cc"/>
      <stop offset="1" stop-color="#6396cf"/>
    </linearGradient>
    <linearGradient id="linear-gradient-3" x1="121" y1="167.01" x2="352.23" y2="314.73" gradientUnits="userSpaceOnUse">
      <stop offset="0" stop-color="#81cfcb"/>
      <stop offset=".49" stop-color="#71b0cd"/>
      <stop offset="1" stop-color="#6396cf"/>
    </linearGradient>
  </defs>
  <circle class="cls-3" cx="236.47" cy="236.47" r="227.97"/>
  <path class="cls-2" d="M205.64,288.14c0-4.55,3.84-8.25,8.57-8.25h51.45c4.74,0,8.57,3.69,8.57,8.25s-3.84,8.25-8.57,8.25h-51.45c-4.74,0-8.57-3.69-8.57-8.25M154.19,214.96c0-21.47,21.18-37.88,43.39-35.88,28.18,2.53,56.54,2.53,84.72,0,22.21-2,43.39,14.41,43.39,35.88v19.08c.17,7.54-5.4,14.08-13.12,15.42-14.49,2.42-40.13,5.71-72.63,5.71s-58.14-3.3-72.63-5.71c-7.72-1.34-13.29-7.88-13.12-15.42v-19.08ZM232.09,201.32c-1.36-.22-2.74.2-3.72,1.12l-15.78,14.84c-10.73-.62-21.43-1.63-32.09-3.02-2.36-.23-4.46,1.43-4.69,3.69-.22,2.15,1.31,4.09,3.52,4.47,9.43,1.25,21.13,2.46,34.64,3.18,1.2.07,2.38-.36,3.24-1.17l12.93-12.14,14.53,28.2c1.05,2.04,3.63,2.87,5.75,1.86.44-.21.84-.49,1.18-.83l15.98-16c11.02-.62,22.02-1.66,32.96-3.1,2.33-.39,3.89-2.53,3.48-4.77-.39-2.12-2.41-3.6-4.65-3.39-9.23,1.22-20.7,2.39-33.96,3.12-1.08.06-2.1.51-2.85,1.25l-12.93,12.95-14.44-28.03c-.61-1.18-1.77-2.01-3.12-2.23"/>
  <path class="cls-1" d="M245.04,118.82c8.2-4.55,11.01-14.64,6.28-22.53-4.74-7.89-15.22-10.59-23.43-6.04-8.2,4.55-11.01,14.64-6.28,22.53,1.51,2.51,3.67,4.59,6.28,6.04v18.7h-34.3c-42.62,0-77.17,33.22-77.17,74.21v8.25c-9.47,0-17.15,7.38-17.15,16.49v32.98c0,9.11,7.68,16.49,17.15,16.49v16.49c0,18.22,15.36,32.98,34.3,32.98h171.49c18.94,0,34.3-14.77,34.3-32.98v-16.49c9.47,0,17.15-7.38,17.15-16.49v-32.98c0-9.11-7.68-16.49-17.15-16.49v-8.25c0-40.98-34.55-74.21-77.17-74.21h-34.3v-18.7ZM339.36,211.73v90.7c0,9.11-7.68,16.49-17.15,16.49h-171.49c-9.47,0-17.15-7.38-17.15-16.49v-90.7c0-31.88,26.87-57.72,60.02-57.72h85.75c33.15,0,60.02,25.84,60.02,57.72"/>
</svg>