<svg xmlns="http://www.w3.org/2000/svg" xmlns:xlink="http://www.w3.org/1999/xlink" width="500" zoomAndPan="magnify" viewBox="0 0 375 374.999991" height="500" preserveAspectRatio="xMidYMid meet" version="1.0"><defs><g/><clipPath id="07d6176133"><path d="M 338.535156 145.773438 L 359.5625 145.773438 L 359.5625 166.800781 L 338.535156 166.800781 Z M 338.535156 145.773438 " clip-rule="nonzero"/></clipPath><clipPath id="7ebd0f4d33"><path d="M 349.046875 145.773438 C 343.242188 145.773438 338.535156 150.480469 338.535156 156.285156 C 338.535156 162.09375 343.242188 166.800781 349.046875 166.800781 C 354.855469 166.800781 359.5625 162.09375 359.5625 156.285156 C 359.5625 150.480469 354.855469 145.773438 349.046875 145.773438 Z M 349.046875 145.773438 " clip-rule="nonzero"/></clipPath><clipPath id="cc04761280"><path d="M 338.632812 170.867188 L 359.660156 170.867188 L 359.660156 191.890625 L 338.632812 191.890625 Z M 338.632812 170.867188 " clip-rule="nonzero"/></clipPath><clipPath id="887715f40c"><path d="M 349.144531 170.867188 C 343.339844 170.867188 338.632812 175.574219 338.632812 181.378906 C 338.632812 187.183594 343.339844 191.890625 349.144531 191.890625 C 354.953125 191.890625 359.660156 187.183594 359.660156 181.378906 C 359.660156 175.574219 354.953125 170.867188 349.144531 170.867188 Z M 349.144531 170.867188 " clip-rule="nonzero"/></clipPath><clipPath id="77d0c84813"><path d="M 338.535156 195.957031 L 359.5625 195.957031 L 359.5625 216.984375 L 338.535156 216.984375 Z M 338.535156 195.957031 " clip-rule="nonzero"/></clipPath><clipPath id="643ad94c56"><path d="M 349.046875 195.957031 C 343.242188 195.957031 338.535156 200.664062 338.535156 206.472656 C 338.535156 212.277344 343.242188 216.984375 349.046875 216.984375 C 354.855469 216.984375 359.5625 212.277344 359.5625 206.472656 C 359.5625 200.664062 354.855469 195.957031 349.046875 195.957031 Z M 349.046875 195.957031 " clip-rule="nonzero"/></clipPath><clipPath id="c7630bccab"><path d="M 313.46875 145.773438 L 334.496094 145.773438 L 334.496094 166.800781 L 313.46875 166.800781 Z M 313.46875 145.773438 " clip-rule="nonzero"/></clipPath><clipPath id="b647965cac"><path d="M 323.980469 145.773438 C 318.175781 145.773438 313.46875 150.480469 313.46875 156.285156 C 313.46875 162.09375 318.175781 166.800781 323.980469 166.800781 C 329.789062 166.800781 334.496094 162.09375 334.496094 156.285156 C 334.496094 150.480469 329.789062 145.773438 323.980469 145.773438 Z M 323.980469 145.773438 " clip-rule="nonzero"/></clipPath><clipPath id="b95ac9ed93"><path d="M 288.351562 145.773438 L 309.375 145.773438 L 309.375 166.800781 L 288.351562 166.800781 Z M 288.351562 145.773438 " clip-rule="nonzero"/></clipPath><clipPath id="25d589edd9"><path d="M 298.863281 145.773438 C 293.058594 145.773438 288.351562 150.480469 288.351562 156.285156 C 288.351562 162.09375 293.058594 166.800781 298.863281 166.800781 C 304.667969 166.800781 309.375 162.09375 309.375 156.285156 C 309.375 150.480469 304.667969 145.773438 298.863281 145.773438 Z M 298.863281 145.773438 " clip-rule="nonzero"/></clipPath><clipPath id="af16c0b33a"><path d="M 288.351562 170.839844 L 309.375 170.839844 L 309.375 191.867188 L 288.351562 191.867188 Z M 288.351562 170.839844 " clip-rule="nonzero"/></clipPath><clipPath id="79a3707fe8"><path d="M 298.863281 170.839844 C 293.058594 170.839844 288.351562 175.546875 288.351562 181.355469 C 288.351562 187.160156 293.058594 191.867188 298.863281 191.867188 C 304.667969 191.867188 309.375 187.160156 309.375 181.355469 C 309.375 175.546875 304.667969 170.839844 298.863281 170.839844 Z M 298.863281 170.839844 " clip-rule="nonzero"/></clipPath><clipPath id="8c9e9c3cb2"><path d="M 288.351562 195.957031 L 309.375 195.957031 L 309.375 216.984375 L 288.351562 216.984375 Z M 288.351562 195.957031 " clip-rule="nonzero"/></clipPath><clipPath id="f6c72673bc"><path d="M 298.863281 195.957031 C 293.058594 195.957031 288.351562 200.664062 288.351562 206.472656 C 288.351562 212.277344 293.058594 216.984375 298.863281 216.984375 C 304.667969 216.984375 309.375 212.277344 309.375 206.472656 C 309.375 200.664062 304.667969 195.957031 298.863281 195.957031 Z M 298.863281 195.957031 " clip-rule="nonzero"/></clipPath><clipPath id="ed59e7b9c7"><path d="M 313.441406 195.90625 L 334.46875 195.90625 L 334.46875 216.933594 L 313.441406 216.933594 Z M 313.441406 195.90625 " clip-rule="nonzero"/></clipPath><clipPath id="cfc2d58f4b"><path d="M 323.957031 195.90625 C 318.148438 195.90625 313.441406 200.613281 313.441406 206.421875 C 313.441406 212.226562 318.148438 216.933594 323.957031 216.933594 C 329.761719 216.933594 334.46875 212.226562 334.46875 206.421875 C 334.46875 200.613281 329.761719 195.90625 323.957031 195.90625 Z M 323.957031 195.90625 " clip-rule="nonzero"/></clipPath><clipPath id="affa6d9798"><path d="M 313.46875 170.839844 L 334.007812 170.839844 L 334.007812 191.382812 L 313.46875 191.382812 Z M 313.46875 170.839844 " clip-rule="nonzero"/></clipPath><clipPath id="3365110855"><path d="M 323.976562 170.839844 C 318.171875 170.839844 313.46875 175.546875 313.46875 181.347656 C 313.46875 187.152344 318.171875 191.855469 323.976562 191.855469 C 329.777344 191.855469 334.484375 187.152344 334.484375 181.347656 C 334.484375 175.546875 329.777344 170.839844 323.976562 170.839844 Z M 323.976562 170.839844 " clip-rule="nonzero"/></clipPath></defs><g clip-path="url(#07d6176133)"><g clip-path="url(#7ebd0f4d33)"><path fill="#ffffff" d="M 338.535156 145.773438 L 359.5625 145.773438 L 359.5625 166.800781 L 338.535156 166.800781 Z M 338.535156 145.773438 " fill-opacity="1" fill-rule="nonzero"/></g></g><g clip-path="url(#cc04761280)"><g clip-path="url(#887715f40c)"><path fill="#ffffff" d="M 338.632812 170.867188 L 359.660156 170.867188 L 359.660156 191.890625 L 338.632812 191.890625 Z M 338.632812 170.867188 " fill-opacity="1" fill-rule="nonzero"/></g></g><g clip-path="url(#77d0c84813)"><g clip-path="url(#643ad94c56)"><path fill="#ffffff" d="M 338.535156 195.957031 L 359.5625 195.957031 L 359.5625 216.984375 L 338.535156 216.984375 Z M 338.535156 195.957031 " fill-opacity="1" fill-rule="nonzero"/></g></g><g clip-path="url(#c7630bccab)"><g clip-path="url(#b647965cac)"><path fill="#ffffff" d="M 313.46875 145.773438 L 334.496094 145.773438 L 334.496094 166.800781 L 313.46875 166.800781 Z M 313.46875 145.773438 " fill-opacity="1" fill-rule="nonzero"/></g></g><g clip-path="url(#b95ac9ed93)"><g clip-path="url(#25d589edd9)"><path fill="#ffffff" d="M 288.351562 145.773438 L 309.375 145.773438 L 309.375 166.800781 L 288.351562 166.800781 Z M 288.351562 145.773438 " fill-opacity="1" fill-rule="nonzero"/></g></g><g clip-path="url(#af16c0b33a)"><g clip-path="url(#79a3707fe8)"><path fill="#ffffff" d="M 288.351562 170.839844 L 309.375 170.839844 L 309.375 191.867188 L 288.351562 191.867188 Z M 288.351562 170.839844 " fill-opacity="1" fill-rule="nonzero"/></g></g><g clip-path="url(#8c9e9c3cb2)"><g clip-path="url(#f6c72673bc)"><path fill="#ffffff" d="M 288.351562 195.957031 L 309.375 195.957031 L 309.375 216.984375 L 288.351562 216.984375 Z M 288.351562 195.957031 " fill-opacity="1" fill-rule="nonzero"/></g></g><g clip-path="url(#ed59e7b9c7)"><g clip-path="url(#cfc2d58f4b)"><path fill="#ffffff" d="M 313.441406 195.90625 L 334.46875 195.90625 L 334.46875 216.933594 L 313.441406 216.933594 Z M 313.441406 195.90625 " fill-opacity="1" fill-rule="nonzero"/></g></g><g clip-path="url(#affa6d9798)"><g clip-path="url(#3365110855)"><path stroke-linecap="butt" transform="matrix(0.978165, 0, 0, 0.978165, 313.468256, 170.840497)" fill="none" stroke-linejoin="miter" d="M 10.742873 -0.000667608 C 4.808613 -0.000667608 0.000505113 4.811434 0.000505113 10.741701 C 0.000505113 16.67596 4.808613 21.484069 10.742873 21.484069 C 16.67314 21.484069 21.485241 16.67596 21.485241 10.741701 C 21.485241 4.811434 16.67314 -0.000667608 10.742873 -0.000667608 Z M 10.742873 -0.000667608 " stroke="#ffffff" stroke-width="7.667415" stroke-opacity="1" stroke-miterlimit="4"/></g></g><g fill="#ffffff" fill-opacity="1"><g transform="translate(15.340957, 214.647722)"><g><path d="M 17.234375 -15.8125 C 15.148438 -16.082031 13.21875 -16.5 11.4375 -17.0625 C 9.65625 -17.632812 8.109375 -18.421875 6.796875 -19.421875 C 5.484375 -20.429688 4.457031 -21.675781 3.71875 -23.15625 C 2.976562 -24.632812 2.609375 -26.4375 2.609375 -28.5625 C 2.609375 -30.300781 2.957031 -31.910156 3.65625 -33.390625 C 4.363281 -34.867188 5.398438 -36.148438 6.765625 -37.234375 C 8.128906 -38.316406 9.828125 -39.160156 11.859375 -39.765625 C 13.890625 -40.367188 16.210938 -40.671875 18.828125 -40.671875 C 21.597656 -40.671875 24 -40.335938 26.03125 -39.671875 C 28.0625 -39.015625 29.75 -38.132812 31.09375 -37.03125 C 32.4375 -35.9375 33.445312 -34.6875 34.125 -33.28125 C 34.8125 -31.875 35.210938 -30.453125 35.328125 -29.015625 L 26.171875 -29.015625 C 26.097656 -30.453125 25.519531 -31.632812 24.4375 -32.5625 C 23.351562 -33.5 21.484375 -33.96875 18.828125 -33.96875 C 17.390625 -33.96875 16.195312 -33.832031 15.25 -33.5625 C 14.300781 -33.300781 13.539062 -32.960938 12.96875 -32.546875 C 12.40625 -32.128906 12.007812 -31.65625 11.78125 -31.125 C 11.550781 -30.59375 11.4375 -30.039062 11.4375 -29.46875 C 11.4375 -28.632812 11.601562 -27.941406 11.9375 -27.390625 C 12.28125 -26.835938 12.785156 -26.378906 13.453125 -26.015625 C 14.117188 -25.660156 14.90625 -25.367188 15.8125 -25.140625 C 16.726562 -24.910156 17.753906 -24.722656 18.890625 -24.578125 L 21.453125 -24.171875 C 23.421875 -23.867188 25.296875 -23.476562 27.078125 -23 C 28.859375 -22.53125 30.421875 -21.84375 31.765625 -20.9375 C 33.117188 -20.03125 34.191406 -18.84375 34.984375 -17.375 C 35.785156 -15.914062 36.1875 -14.050781 36.1875 -11.78125 C 36.1875 -9.914062 35.796875 -8.210938 35.015625 -6.671875 C 34.234375 -5.140625 33.113281 -3.816406 31.65625 -2.703125 C 30.195312 -1.585938 28.40625 -0.710938 26.28125 -0.078125 C 24.15625 0.546875 21.765625 0.859375 19.109375 0.859375 C 16.421875 0.859375 14.015625 0.554688 11.890625 -0.046875 C 9.765625 -0.660156 7.960938 -1.515625 6.484375 -2.609375 C 5.003906 -3.710938 3.863281 -5.03125 3.0625 -6.5625 C 2.269531 -8.101562 1.835938 -9.800781 1.765625 -11.65625 L 10.921875 -11.65625 C 10.992188 -9.644531 11.734375 -8.164062 13.140625 -7.21875 C 14.546875 -6.269531 16.535156 -5.796875 19.109375 -5.796875 C 21.847656 -5.796875 23.890625 -6.28125 25.234375 -7.25 C 26.578125 -8.21875 27.25 -9.441406 27.25 -10.921875 C 27.25 -11.796875 27.054688 -12.5 26.671875 -13.03125 C 26.296875 -13.5625 25.785156 -13.976562 25.140625 -14.28125 C 24.492188 -14.582031 23.707031 -14.816406 22.78125 -14.984375 C 21.851562 -15.160156 20.859375 -15.320312 19.796875 -15.46875 Z M 17.234375 -15.8125 "/></g></g></g><g fill="#ffffff" fill-opacity="1"><g transform="translate(53.398371, 214.647722)"><g><path d="M 4.375 -39.828125 L 13.484375 -39.828125 L 13.484375 -7.6875 L 33.390625 -7.6875 L 33.390625 0 L 4.375 0 Z M 4.375 -39.828125 "/></g></g></g><g fill="#ffffff" fill-opacity="1"><g transform="translate(87.303034, 214.647722)"><g><path d="M 33.390625 -19.90625 C 33.390625 -21.6875 33.160156 -23.363281 32.703125 -24.9375 C 32.253906 -26.519531 31.5625 -27.90625 30.625 -29.09375 C 29.695312 -30.289062 28.539062 -31.238281 27.15625 -31.9375 C 25.78125 -32.644531 24.160156 -33 22.296875 -33 C 20.441406 -33 18.820312 -32.644531 17.4375 -31.9375 C 16.050781 -31.238281 14.894531 -30.289062 13.96875 -29.09375 C 13.039062 -27.90625 12.347656 -26.519531 11.890625 -24.9375 C 11.429688 -23.363281 11.203125 -21.6875 11.203125 -19.90625 C 11.203125 -18.125 11.429688 -16.445312 11.890625 -14.875 C 12.347656 -13.300781 13.039062 -11.914062 13.96875 -10.71875 C 14.894531 -9.53125 16.050781 -8.582031 17.4375 -7.875 C 18.820312 -7.175781 20.441406 -6.828125 22.296875 -6.828125 C 24.160156 -6.828125 25.78125 -7.175781 27.15625 -7.875 C 28.539062 -8.582031 29.695312 -9.53125 30.625 -10.71875 C 31.5625 -11.914062 32.253906 -13.300781 32.703125 -14.875 C 33.160156 -16.445312 33.390625 -18.125 33.390625 -19.90625 Z M 42.5 -19.90625 C 42.5 -16.914062 42.023438 -14.148438 41.078125 -11.609375 C 40.128906 -9.066406 38.769531 -6.875 37 -5.03125 C 35.238281 -3.195312 33.113281 -1.753906 30.625 -0.703125 C 28.144531 0.335938 25.367188 0.859375 22.296875 0.859375 C 19.222656 0.859375 16.441406 0.335938 13.953125 -0.703125 C 11.472656 -1.753906 9.351562 -3.195312 7.59375 -5.03125 C 5.832031 -6.875 4.476562 -9.066406 3.53125 -11.609375 C 2.582031 -14.148438 2.109375 -16.914062 2.109375 -19.90625 C 2.109375 -22.90625 2.582031 -25.664062 3.53125 -28.1875 C 4.476562 -30.707031 5.832031 -32.894531 7.59375 -34.75 C 9.351562 -36.613281 11.472656 -38.066406 13.953125 -39.109375 C 16.441406 -40.148438 19.222656 -40.671875 22.296875 -40.671875 C 25.367188 -40.671875 28.144531 -40.148438 30.625 -39.109375 C 33.113281 -38.066406 35.238281 -36.613281 37 -34.75 C 38.769531 -32.894531 40.128906 -30.707031 41.078125 -28.1875 C 42.023438 -25.664062 42.5 -22.90625 42.5 -19.90625 Z M 42.5 -19.90625 "/></g></g></g><g fill="#ffffff" fill-opacity="1"><g transform="translate(131.902468, 214.647722)"><g><path d="M 35.328125 -32.140625 L 22.53125 -32.140625 L 22.53125 0 L 13.421875 0 L 13.421875 -32.140625 L 0.625 -32.140625 L 0.625 -39.828125 L 35.328125 -39.828125 Z M 35.328125 -32.140625 "/></g></g></g><g fill="#ffffff" fill-opacity="1"><g transform="translate(167.85507, 214.647722)"><g><path d="M 35.328125 -32.140625 L 22.53125 -32.140625 L 22.53125 0 L 13.421875 0 L 13.421875 -32.140625 L 0.625 -32.140625 L 0.625 -39.828125 L 35.328125 -39.828125 Z M 35.328125 -32.140625 "/></g></g></g><g fill="#ffffff" fill-opacity="1"><g transform="translate(203.807672, 214.647722)"><g><path d="M 4.375 -39.828125 L 34.53125 -39.828125 L 34.53125 -32.140625 L 13.484375 -32.140625 L 13.484375 -24.171875 L 33.390625 -24.171875 L 33.390625 -16.5 L 13.484375 -16.5 L 13.484375 -7.6875 L 34.53125 -7.6875 L 34.53125 0 L 4.375 0 Z M 4.375 -39.828125 "/></g></g></g><g fill="#ffffff" fill-opacity="1"><g transform="translate(241.296216, 214.647722)"><g><path d="M 13.484375 -14.796875 L 13.484375 0 L 4.375 0 L 4.375 -39.828125 L 25.71875 -39.828125 C 27.84375 -39.828125 29.765625 -39.519531 31.484375 -38.90625 C 33.210938 -38.300781 34.679688 -37.445312 35.890625 -36.34375 C 37.109375 -35.25 38.039062 -33.929688 38.6875 -32.390625 C 39.332031 -30.859375 39.65625 -29.164062 39.65625 -27.3125 C 39.65625 -25.445312 39.332031 -23.753906 38.6875 -22.234375 C 38.039062 -20.722656 37.140625 -19.425781 35.984375 -18.34375 C 34.828125 -17.257812 33.421875 -16.40625 31.765625 -15.78125 C 30.117188 -15.15625 28.289062 -14.828125 26.28125 -14.796875 L 41.078125 0 L 29.125 0 L 14.90625 -14.796875 Z M 25.71875 -22.1875 C 27.007812 -22.1875 28.132812 -22.570312 29.09375 -23.34375 C 30.0625 -24.125 30.546875 -25.40625 30.546875 -27.1875 C 30.546875 -28.976562 30.0625 -30.25 29.09375 -31 C 28.132812 -31.757812 27.007812 -32.140625 25.71875 -32.140625 L 13.484375 -32.140625 L 13.484375 -22.1875 Z M 25.71875 -22.1875 "/></g></g></g></svg>